# xmcd
#
# Track frame offsets: 
#        21742
#        32935
#        52245
#        64915
#        88967
#        103630
#        128832
#        148850
#        176322
#        199327
#        223395
#        236287
#        250605
#        268257
#        284300
#        303820
#
# Disc length: 4233 seconds
#
# Revision: 5
# Processed by: cddbd v1.5.1PL0 Copyright (c) Steve Scherf et al.
# Submitted via: ExactAudioCopy v0.90b4
#
DISCID=0c0f6810
DTITLE=Will Oldham - Guarapero - Lost Blues 2
DYEAR=2000
DGENRE=Rock
TTITLE0=Drinking Woman
TTITLE1=The Spider's Dude Is Often There
TTITLE2=Gezundheit
TTITLE3=Let The Wires Ring
TTITLE4=Big Balls
TTITLE5=For The Mekons Et Al
TTITLE6=Stable Will
TTITLE7=Every Mother's Son
TTITLE8=No More Rides
TTITLE9=The Risen Lord
TTITLE10=Boy, Have You Cum
TTITLE11=Patience
TTITLE12=Take However Long You Want
TTITLE13=Sugarcane Juice Drinker
TTITLE14=Call Me A Liar
TTITLE15=O Lord Are You In Need?
EXTD=
EXTT0=
EXTT1=
EXTT2=
EXTT3=
EXTT4=
EXTT5=
EXTT6=
EXTT7=
EXTT8=
EXTT9=
EXTT10=
EXTT11=
EXTT12=
EXTT13=
EXTT14=
EXTT15=
PLAYORDER=
